<svg xmlns:xlink="http://www.w3.org/1999/xlink" xmlns="http://www.w3.org/2000/svg" width="278.536" height="85.08" viewBox="0 0 278.536 85.08"><script xmlns="">window.freighter = true;</script><script xmlns=""/><script xmlns=""/>
  <g id="Group_14" data-name="Group 14" transform="translate(-806 -51)">
    <g id="Group_13" data-name="Group 13" transform="translate(551 -368.92)">
      <g id="Group_7" data-name="Group 7" transform="translate(-504 132)">
        <g id="Group_2" data-name="Group 2">
          <rect id="Rectangle_1" data-name="Rectangle 1" width="57" height="5" rx="2.5" transform="translate(759 289)"/>
          <rect id="Rectangle_2" data-name="Rectangle 2" width="57" height="6" rx="3" transform="translate(790 289) rotate(90)"/>
        </g>
        <g id="Group_3" data-name="Group 3">
          <rect id="Rectangle_4" data-name="Rectangle 4" width="62" height="6" rx="3" transform="translate(844.97 290.36) rotate(114)"/>
          <path id="Path_1" data-name="Path 1" d="M-3.292.113,51.052,0a2.82,2.82,0,0,1,2.6,3,2.82,2.82,0,0,1-2.6,3L2.457,6.534Z" transform="matrix(0.407, 0.914, -0.914, 0.407, 846.149, 295.55)"/>
        </g>
        <g id="Group_4" data-name="Group 4">
          <rect id="Rectangle_5" data-name="Rectangle 5" width="57" height="6" rx="3" transform="translate(888 289) rotate(90)"/>
          <rect id="Rectangle_7" data-name="Rectangle 7" width="71" height="6" rx="3" transform="translate(930.625 291.823) rotate(129)"/>
          <path id="Path_2" data-name="Path 2" d="M19.739.4,51.052,0a2.82,2.82,0,0,1,2.6,3,2.82,2.82,0,0,1-2.6,3L21.52,6.588Z" transform="translate(900.569 299.818) rotate(55)"/>
        </g>
        <g id="Group_6" data-name="Group 6" transform="translate(-5)">
          <path id="Subtraction_1" data-name="Subtraction 1" d="M20.96,56.96a24.055,24.055,0,0,1-8.57-1.45,18.589,18.589,0,0,1-6.67-4.35,18.347,18.347,0,0,1-4.29-7.23A32.358,32.358,0,0,1,0,33.84V4.96a5.678,5.678,0,0,1,1-3.9A3.371,3.371,0,0,1,3.648,0,3.362,3.362,0,0,1,6.3,1.06a5.665,5.665,0,0,1,.985,3.9V33.84a25.428,25.428,0,0,0,.92,7.23,12.648,12.648,0,0,0,2.76,5.05,11.753,11.753,0,0,0,4.38,2.97,15.9,15.9,0,0,0,5.78.99,15.322,15.322,0,0,0,5.7-1,11.465,11.465,0,0,0,4.3-3,13.292,13.292,0,0,0,2.868-5.673V43.95a18.308,18.308,0,0,1-4.427,11.571A24.36,24.36,0,0,1,20.96,56.96Zm10.028-2.043v0a17.028,17.028,0,0,0,3.759-10.348V28.876a.332.332,0,0,0-.026-.127V4.96a5.776,5.776,0,0,1,1.028-3.927A3.292,3.292,0,0,1,38.323,0a3.341,3.341,0,0,1,2.592,1.035A5.825,5.825,0,0,1,42,4.96V33.84a32.358,32.358,0,0,1-1.43,10.09,17.966,17.966,0,0,1-9.582,10.987Z" transform="translate(1000 289.04)" fill="#020202" stroke="rgba(0,0,0,0)" stroke-miterlimit="10" stroke-width="1"/>
        </g>
        <path id="Path_25" data-name="Path 25" d="M1013,290.677" fill="none" stroke="#707070" stroke-width="1"/>
        <path id="Subtraction_2" data-name="Subtraction 2" d="M18.615,57.68A29.887,29.887,0,0,1,7.875,55.8,21.756,21.756,0,0,1,1.1,51.76a3.341,3.341,0,0,1-.872-1.192,3,3,0,0,1,.518-3.085,2.955,2.955,0,0,1,2.4-1.392,3.182,3.182,0,0,1,1.716.549,23.81,23.81,0,0,0,5.81,3.6,21.6,21.6,0,0,0,8.51,1.68,13.14,13.14,0,0,0,8.689-2.73A8.433,8.433,0,0,0,30.1,46.216a8.9,8.9,0,0,0,.756-3.656c0-2.835-1.3-5.1-4.1-7.129a28.422,28.422,0,0,1,6.5,2.546,14.952,14.952,0,0,1,4.045,3.029c.027.377.041.765.041,1.153A14.411,14.411,0,0,1,32.475,53.1C29.1,56.1,24.3,57.68,18.615,57.68Zm18.4-18.644,0,0c-3.174-2.322-10.9-5.242-14.074-5.846-1.211-.607-2.468-1.176-3.8-1.779-3.609-1.637-7.34-3.329-10.193-5.818A13.3,13.3,0,0,1,4.136,15.04a14.068,14.068,0,0,1,4.9-10.7A18.789,18.789,0,0,1,21.495,0c7.622,0,12.344,2.957,14.48,4.72a4.841,4.841,0,0,1,.681,1.457,2.784,2.784,0,0,1-.681,2.818,3.291,3.291,0,0,1-2.386,1.033,3.578,3.578,0,0,1-1.533-.347A17.381,17.381,0,0,0,27.3,6.92a17.244,17.244,0,0,0-6.2-1.08,11.554,11.554,0,0,0-7.7,2.48,8.1,8.1,0,0,0-2.78,6.32c0,6.015,5.792,8.669,11.923,11.479a48.44,48.44,0,0,1,9.01,4.915,13.5,13.5,0,0,1,5.461,8Z" transform="translate(942.385 288)"/>
      </g>
      <g id="Group_11" data-name="Group 11" transform="translate(135.845 -143)">
        <text id="teknologi" transform="translate(313.155 642)" font-size="18" font-family="Poppins-Regular, Poppins"><tspan x="0" y="0">teknologi</tspan></text>
        <circle id="Ellipse_1" data-name="Ellipse 1" cx="6.5" cy="6.5" r="6.5" transform="translate(294.155 630)" fill="red"/>
      </g>
    </g>
  </g>
</svg>